<svg width="1136" height="1288" viewBox="0 0 1136 1288" fill="none" xmlns="http://www.w3.org/2000/svg">
<path d="M687.381 41.2849C684.505 41.9199 682.688 44.7664 683.323 47.6426C683.958 50.5189 686.804 52.3358 689.681 51.7008C692.557 51.0658 694.374 48.2194 693.739 45.3431C693.104 42.4669 690.257 40.65 687.381 41.2849ZM968.85 1121.29C965.973 1121.93 964.156 1124.77 964.791 1127.65C965.426 1130.53 968.273 1132.34 971.149 1131.71C974.025 1131.07 975.842 1128.23 975.207 1125.35C974.572 1122.47 971.726 1120.66 968.85 1121.29ZM917.03 104.993L918.03 104.993L917.03 104.993ZM114.525 714.494L115.509 714.318L114.525 714.494ZM681.999 778.499L682.511 777.64L681.999 778.499ZM688.531 46.4929C688.665 47.4838 688.666 47.4837 688.668 47.4835C688.669 47.4833 688.672 47.4829 688.675 47.4825C688.682 47.4816 688.692 47.4802 688.705 47.4784C688.733 47.4748 688.774 47.4693 688.828 47.4621C688.937 47.4477 689.1 47.4263 689.315 47.3984C689.745 47.3428 690.384 47.2615 691.219 47.1592C692.888 46.9546 695.338 46.666 698.456 46.3302C704.694 45.6586 713.607 44.7987 724.304 44.0461C745.702 42.5405 774.217 41.4656 802.721 43.1812C831.245 44.8981 859.662 49.4051 880.916 59.0087C902.147 68.6021 916.03 83.1684 916.03 104.993L918.03 104.993C918.03 82.0707 903.351 66.9514 881.739 57.1861C860.15 47.431 831.442 42.9063 802.841 41.1848C774.219 39.4621 745.61 40.5421 724.164 42.051C713.439 42.8057 704.501 43.6679 698.242 44.3417C695.113 44.6786 692.654 44.9684 690.975 45.1741C690.136 45.2769 689.493 45.3588 689.058 45.415C688.841 45.443 688.676 45.4647 688.565 45.4794C688.51 45.4868 688.468 45.4924 688.44 45.4961C688.426 45.498 688.415 45.4995 688.408 45.5004C688.404 45.5009 688.401 45.5013 688.4 45.5015C688.398 45.5018 688.397 45.5019 688.531 46.4929ZM916.03 104.993C916.03 121.423 907.266 134.297 891.887 144.757C876.479 155.237 854.528 163.217 828.434 169.805C776.225 182.985 707.94 190.484 643.213 201.539C578.609 212.573 517.528 227.154 480.184 254.579C461.475 268.32 448.66 285.328 444.389 306.769C440.121 328.192 444.415 353.883 459.601 384.939L461.398 384.06C446.328 353.243 442.197 328.01 446.35 307.16C450.5 286.329 462.951 269.717 481.368 256.191C518.278 229.085 578.894 214.553 643.55 203.51C708.084 192.488 776.622 184.948 828.923 171.744C855.083 165.14 877.309 157.092 893.012 146.411C908.746 135.709 918.03 122.288 918.03 104.993L916.03 104.993ZM459.601 384.939C474.68 415.776 480.021 441.001 478.002 461.912C475.985 482.795 466.617 499.48 452.069 513.246C437.5 527.032 417.734 537.89 394.952 547.058C372.176 556.223 346.449 563.672 319.998 570.672C267.165 584.652 211.361 596.844 170.928 617.342C150.693 627.6 134.202 639.986 123.84 655.812C113.457 671.668 109.286 690.888 113.54 714.67L115.509 714.318C111.336 690.986 115.438 672.294 125.513 656.907C135.608 641.489 151.759 629.302 171.833 619.125C212.019 598.753 267.508 586.63 320.51 572.605C346.976 565.602 372.802 558.126 395.699 548.913C418.59 539.702 438.616 528.729 453.444 514.699C468.291 500.649 477.923 483.535 479.992 462.104C482.059 440.701 476.574 415.097 461.398 384.06L459.601 384.939ZM113.54 714.67C116.403 730.675 125.344 742.347 138.993 750.653C152.603 758.936 170.889 763.871 192.515 766.507C235.762 771.779 292.749 767.893 353.357 762.75C414.014 757.603 478.335 751.193 536.402 751.364C594.499 751.535 646.129 758.3 681.488 779.359L682.511 777.64C646.659 756.288 594.555 749.535 536.408 749.364C478.229 749.192 413.792 755.614 353.188 760.757C292.537 765.904 235.762 769.764 192.757 764.522C171.256 761.901 153.293 757.014 140.032 748.945C126.81 740.899 118.259 729.689 115.509 714.318L113.54 714.67ZM681.488 779.359C761.115 826.782 797.745 913.446 832.169 988.627C849.352 1026.15 866.006 1060.85 887.226 1086.16C908.485 1111.51 934.381 1127.5 969.999 1127.5L969.999 1125.5C935.108 1125.5 909.735 1109.89 888.758 1084.87C867.741 1059.81 851.189 1025.36 833.987 987.794C799.64 912.781 762.779 825.445 682.511 777.64L681.488 779.359Z" fill="white"/>
<g filter="url(#filter0_ii_1011_27)">
<circle cx="837" cy="170" r="11" fill="#9B71B4"/>
</g>
<circle cx="812.5" cy="174.5" r="6.5" fill="white"/>
<circle cx="312.5" cy="573.5" r="6.5" fill="#9B71B4"/>
<circle cx="809" cy="934" r="11" fill="#9B71B4"/>
<circle cx="763.5" cy="857.5" r="5.5" fill="white"/>
<circle cx="754" cy="844" r="4" fill="#9B71B4"/>
<defs>
<filter id="filter0_ii_1011_27" x="826" y="155" width="22" height="30" filterUnits="userSpaceOnUse" color-interpolation-filters="sRGB">
<feFlood flood-opacity="0" result="BackgroundImageFix"/>
<feBlend mode="normal" in="SourceGraphic" in2="BackgroundImageFix" result="shape"/>
<feColorMatrix in="SourceAlpha" type="matrix" values="0 0 0 0 0 0 0 0 0 0 0 0 0 0 0 0 0 0 127 0" result="hardAlpha"/>
<feOffset dy="4"/>
<feGaussianBlur stdDeviation="2"/>
<feComposite in2="hardAlpha" operator="arithmetic" k2="-1" k3="1"/>
<feColorMatrix type="matrix" values="0 0 0 0 0 0 0 0 0 0 0 0 0 0 0 0 0 0 0.25 0"/>
<feBlend mode="normal" in2="shape" result="effect1_innerShadow_1011_27"/>
<feColorMatrix in="SourceAlpha" type="matrix" values="0 0 0 0 0 0 0 0 0 0 0 0 0 0 0 0 0 0 127 0" result="hardAlpha"/>
<feOffset dy="-4"/>
<feGaussianBlur stdDeviation="2"/>
<feComposite in2="hardAlpha" operator="arithmetic" k2="-1" k3="1"/>
<feColorMatrix type="matrix" values="0 0 0 0 0 0 0 0 0 0 0 0 0 0 0 0 0 0 0.25 0"/>
<feBlend mode="normal" in2="effect1_innerShadow_1011_27" result="effect2_innerShadow_1011_27"/>
</filter>
</defs>
</svg>
